<?xml version="1.0" encoding="UTF-8"?>
<svg width="1149px" height="356px" viewBox="0 0 1149 356" version="1.1" xmlns="http://www.w3.org/2000/svg" xmlns:xlink="http://www.w3.org/1999/xlink">
    <!-- Generator: Sketch 53.2 (72643) - https://sketchapp.com -->
    <title>Group 3</title>
    <desc>Created with Sketch.</desc>
    <g id="CAFE" stroke="none" stroke-width="1" fill="none" fill-rule="evenodd">
        <g id="Final-Portfolio-Copy-5" transform="translate(-127.000000, -232.000000)">
            <g id="Group-3" transform="translate(126.027639, 227.958055)">
                <g id="Group" transform="translate(235.500000, 180.500000) rotate(1.000000) translate(-235.500000, -180.500000) translate(4.000000, 5.000000)">
                    <circle id="Oval" fill="#333333" cx="196.074146" cy="87.1518645" r="87"></circle>
                    <path d="M0.160787859,328.687031 C39.9574189,227.094136 126.777664,156.648182 227.475385,156.648182 C335.143171,156.648182 426.945858,237.183863 462.367001,350.217761 C424.587212,320.458697 379.9751,296.704784 330.072192,281.447934 C209.74031,244.658786 87.2848198,266.031493 0.160787859,328.687031 Z" id="Combined-Shape" fill="#333333"></path>
                    <path d="M216.847667,263.452196 L216.847667,178.942954 L348.97494,12.4333038 L348.97494,287.478604 C305.17364,271.563022 260.392347,263.741986 216.847667,263.452196 Z" id="Combined-Shape" fill="#FF3D29"></path>
                    <path d="M262.193038,266.455186 L262.193038,178.679487 L394.320311,12.423663 L394.320311,307.092498 C351.296775,285.378245 306.506414,272.022545 262.193038,266.455186 Z" id="Combined-Shape" fill="#FFF300"></path>
                    <path d="M298.348984,272.723971 L298.348984,179.372018 L431.258075,13.3522696 L431.258075,328.151184 C419.90831,320.887305 408.070011,314.09484 395.763304,307.82426 C363.969567,291.624542 331.195452,280.001363 298.348984,272.723971 Z" id="Combined-Shape" fill="#00A3FF"></path>
                </g>
                <path d="M588.932361,288.601945 C587.588355,290.857956 585.884372,292.585939 583.820361,293.785945 C581.756351,294.985951 579.428374,295.585945 576.836361,295.585945 C574.052347,295.585945 571.580372,294.901952 569.420361,293.533945 C567.26035,292.165938 565.436369,290.293957 563.948361,287.917945 C562.460354,285.541933 561.320365,282.721961 560.528361,279.457945 C559.736357,276.193929 559.340361,272.665964 559.340361,268.873945 C559.340361,265.033926 559.736357,261.481961 560.528361,258.217945 C561.320365,254.953929 562.472354,252.133957 563.984361,249.757945 C565.496369,247.381933 567.33235,245.521952 569.492361,244.177945 C571.652372,242.833938 574.100348,242.161945 576.836361,242.161945 C579.236373,242.161945 581.480351,242.66594 583.568361,243.673945 C585.656372,244.68195 587.396354,246.265934 588.788361,248.425945 L585.548361,251.737945 C584.444356,250.057937 583.160369,248.809949 581.696361,247.993945 C580.232354,247.177941 578.684369,246.769945 577.052361,246.769945 C574.940351,246.769945 573.104369,247.345939 571.544361,248.497945 C569.984353,249.649951 568.688366,251.233935 567.656361,253.249945 C566.624356,255.265955 565.856364,257.617932 565.352361,260.305945 C564.848359,262.993958 564.596361,265.84993 564.596361,268.873945 C564.596361,271.89796 564.860359,274.741932 565.388361,277.405945 C565.916364,280.069958 566.696356,282.409935 567.728361,284.425945 C568.760366,286.441955 570.056353,288.037939 571.616361,289.213945 C573.176369,290.389951 575.012351,290.977945 577.124361,290.977945 C578.94837,290.977945 580.604354,290.46195 582.092361,289.429945 C583.580369,288.39794 584.804356,287.041953 585.764361,285.361945 L588.932361,288.601945 Z M618.524361,276.577945 C618.524361,279.409959 618.236364,281.977934 617.660361,284.281945 C617.084358,286.585957 616.268367,288.577937 615.212361,290.257945 C614.156356,291.937953 612.848369,293.23394 611.288361,294.145945 C609.728353,295.05795 607.988371,295.513945 606.068361,295.513945 C604.148352,295.513945 602.420369,295.05795 600.884361,294.145945 C599.348354,293.23394 598.040367,291.937953 596.960361,290.257945 C595.880356,288.577937 595.052364,286.585957 594.476361,284.281945 C593.900358,281.977934 593.612361,279.409959 593.612361,276.577945 C593.612361,273.745931 593.888358,271.153957 594.440361,268.801945 C594.992364,266.449933 595.796356,264.433953 596.852361,262.753945 C597.908367,261.073937 599.216353,259.77795 600.776361,258.865945 C602.336369,257.95394 604.100351,257.497945 606.068361,257.497945 C607.988371,257.497945 609.728353,257.95394 611.288361,258.865945 C612.848369,259.77795 614.156356,261.073937 615.212361,262.753945 C616.268367,264.433953 617.084358,266.449933 617.660361,268.801945 C618.236364,271.153957 618.524361,273.745931 618.524361,276.577945 Z M613.628361,276.505945 C613.628361,274.393934 613.472363,272.425954 613.160361,270.601945 C612.84836,268.777936 612.380364,267.205952 611.756361,265.885945 C611.132358,264.565938 610.352366,263.521949 609.416361,262.753945 C608.480357,261.985941 607.364368,261.601945 606.068361,261.601945 C604.772355,261.601945 603.644366,261.985941 602.684361,262.753945 C601.724356,263.521949 600.944364,264.565938 600.344361,265.885945 C599.744358,267.205952 599.288363,268.777936 598.976361,270.601945 C598.66436,272.425954 598.508361,274.393934 598.508361,276.505945 C598.508361,278.617956 598.66436,280.561936 598.976361,282.337945 C599.288363,284.113954 599.744358,285.673938 600.344361,287.017945 C600.944364,288.361952 601.724356,289.405941 602.684361,290.149945 C603.644366,290.893949 604.772355,291.265945 606.068361,291.265945 C607.364368,291.265945 608.492356,290.893949 609.452361,290.149945 C610.412366,289.405941 611.192358,288.361952 611.792361,287.017945 C612.392364,285.673938 612.84836,284.113954 613.160361,282.337945 C613.472363,280.561936 613.628361,278.617956 613.628361,276.505945 Z M632.492361,265.633945 C633.020364,263.233933 634.040354,261.277953 635.552361,259.765945 C637.064369,258.253937 639.020349,257.497945 641.420361,257.497945 C642.716368,257.497945 643.832357,257.725943 644.768361,258.181945 C645.704366,258.637947 646.496358,259.237941 647.144361,259.981945 C647.792364,260.725949 648.296359,261.60194 648.656361,262.609945 C649.016363,263.61795 649.29236,264.64994 649.484361,265.705945 L649.628361,265.705945 C649.916363,264.64994 650.324359,263.62995 650.852361,262.645945 C651.380364,261.66194 652.040357,260.785949 652.832361,260.017945 C653.624365,259.249941 654.536356,258.637947 655.568361,258.181945 C656.600366,257.725943 657.764355,257.497945 659.060361,257.497945 C660.980371,257.497945 662.516355,257.905941 663.668361,258.721945 C664.820367,259.537949 665.720358,260.605938 666.368361,261.925945 C667.016364,263.245952 667.44836,264.733937 667.664361,266.389945 C667.880362,268.045953 667.988361,269.689937 667.988361,271.321945 L667.988361,294.361945 L663.164361,294.361945 L663.164361,271.321945 C663.164361,270.21794 663.104362,269.101951 662.984361,267.973945 C662.864361,266.845939 662.612363,265.81395 662.228361,264.877945 C661.844359,263.94194 661.280365,263.173948 660.536361,262.573945 C659.792358,261.973942 658.796367,261.673945 657.548361,261.673945 C656.396355,261.673945 655.352366,261.997942 654.416361,262.645945 C653.480357,263.293948 652.700364,264.181939 652.076361,265.309945 C651.452358,266.437951 650.972363,267.733938 650.636361,269.197945 C650.30036,270.661952 650.132361,272.185937 650.132361,273.769945 L650.132361,294.361945 L645.380361,294.361945 L645.380361,271.321945 C645.380361,270.21794 645.320362,269.089951 645.200361,267.937945 C645.080361,266.785939 644.840363,265.74195 644.480361,264.805945 C644.120359,263.86994 643.568365,263.113948 642.824361,262.537945 C642.080358,261.961942 641.108367,261.673945 639.908361,261.673945 C638.708355,261.673945 637.652366,261.997942 636.740361,262.645945 C635.828357,263.293948 635.048364,264.181939 634.400361,265.309945 C633.752358,266.437951 633.260363,267.733938 632.924361,269.197945 C632.58836,270.661952 632.420361,272.185937 632.420361,273.769945 L632.420361,294.361945 L627.740361,294.361945 L627.740361,267.649945 C627.740361,266.881941 627.728361,266.053949 627.704361,265.165945 C627.680361,264.277941 627.656361,263.413949 627.632361,262.573945 C627.608361,261.733941 627.584361,260.965949 627.560361,260.269945 C627.536361,259.573942 627.500361,259.033947 627.452361,258.649945 L632.060361,258.649945 C632.156362,259.56195 632.228361,260.665939 632.276361,261.961945 C632.324361,263.257952 632.348361,264.481939 632.348361,265.633945 L632.492361,265.633945 Z M683.828361,265.633945 C684.356364,263.233933 685.376354,261.277953 686.888361,259.765945 C688.400369,258.253937 690.356349,257.497945 692.756361,257.497945 C694.052368,257.497945 695.168357,257.725943 696.104361,258.181945 C697.040366,258.637947 697.832358,259.237941 698.480361,259.981945 C699.128364,260.725949 699.632359,261.60194 699.992361,262.609945 C700.352363,263.61795 700.62836,264.64994 700.820361,265.705945 L700.964361,265.705945 C701.252363,264.64994 701.660359,263.62995 702.188361,262.645945 C702.716364,261.66194 703.376357,260.785949 704.168361,260.017945 C704.960365,259.249941 705.872356,258.637947 706.904361,258.181945 C707.936366,257.725943 709.100355,257.497945 710.396361,257.497945 C712.316371,257.497945 713.852355,257.905941 715.004361,258.721945 C716.156367,259.537949 717.056358,260.605938 717.704361,261.925945 C718.352364,263.245952 718.78436,264.733937 719.000361,266.389945 C719.216362,268.045953 719.324361,269.689937 719.324361,271.321945 L719.324361,294.361945 L714.500361,294.361945 L714.500361,271.321945 C714.500361,270.21794 714.440362,269.101951 714.320361,267.973945 C714.200361,266.845939 713.948363,265.81395 713.564361,264.877945 C713.180359,263.94194 712.616365,263.173948 711.872361,262.573945 C711.128358,261.973942 710.132367,261.673945 708.884361,261.673945 C707.732355,261.673945 706.688366,261.997942 705.752361,262.645945 C704.816357,263.293948 704.036364,264.181939 703.412361,265.309945 C702.788358,266.437951 702.308363,267.733938 701.972361,269.197945 C701.63636,270.661952 701.468361,272.185937 701.468361,273.769945 L701.468361,294.361945 L696.716361,294.361945 L696.716361,271.321945 C696.716361,270.21794 696.656362,269.089951 696.536361,267.937945 C696.416361,266.785939 696.176363,265.74195 695.816361,264.805945 C695.456359,263.86994 694.904365,263.113948 694.160361,262.537945 C693.416358,261.961942 692.444367,261.673945 691.244361,261.673945 C690.044355,261.673945 688.988366,261.997942 688.076361,262.645945 C687.164357,263.293948 686.384364,264.181939 685.736361,265.309945 C685.088358,266.437951 684.596363,267.733938 684.260361,269.197945 C683.92436,270.661952 683.756361,272.185937 683.756361,273.769945 L683.756361,294.361945 L679.076361,294.361945 L679.076361,267.649945 C679.076361,266.881941 679.064361,266.053949 679.040361,265.165945 C679.016361,264.277941 678.992361,263.413949 678.968361,262.573945 C678.944361,261.733941 678.920361,260.965949 678.896361,260.269945 C678.872361,259.573942 678.836361,259.033947 678.788361,258.649945 L683.396361,258.649945 C683.492362,259.56195 683.564361,260.665939 683.612361,261.961945 C683.660361,263.257952 683.684361,264.481939 683.684361,265.633945 L683.828361,265.633945 Z M734.588361,258.649945 L734.588361,281.689945 C734.588361,282.793951 734.648361,283.909939 734.768361,285.037945 C734.888362,286.165951 735.152359,287.19794 735.560361,288.133945 C735.968363,289.06995 736.532358,289.837942 737.252361,290.437945 C737.972365,291.037948 738.956355,291.337945 740.204361,291.337945 C741.404367,291.337945 742.472357,291.013948 743.408361,290.365945 C744.344366,289.717942 745.136358,288.829951 745.784361,287.701945 C746.432364,286.573939 746.936359,285.277952 747.296361,283.813945 C747.656363,282.349938 747.836361,280.825953 747.836361,279.241945 L747.836361,258.649945 L752.588361,258.649945 L752.588361,285.361945 C752.588361,286.129949 752.600361,286.957941 752.624361,287.845945 C752.648361,288.733949 752.672361,289.597941 752.696361,290.437945 C752.720361,291.277949 752.744361,292.057941 752.768361,292.777945 C752.792361,293.497949 752.828361,294.025943 752.876361,294.361945 L748.268361,294.361945 C748.172361,293.44994 748.100361,292.345952 748.052361,291.049945 C748.004361,289.753939 747.980361,288.529951 747.980361,287.377945 L747.836361,287.377945 C747.164358,289.777957 746.060369,291.733937 744.524361,293.245945 C742.988354,294.757953 741.068373,295.513945 738.764361,295.513945 C736.844352,295.513945 735.296367,295.105949 734.120361,294.289945 C732.944355,293.473941 732.044364,292.405952 731.420361,291.085945 C730.796358,289.765938 730.376362,288.289953 730.160361,286.657945 C729.94436,285.025937 729.836361,283.369953 729.836361,281.689945 L729.836361,258.649945 L734.588361,258.649945 Z M782.252361,294.361945 L782.252361,271.321945 C782.252361,270.21794 782.192362,269.101951 782.072361,267.973945 C781.952361,266.845939 781.688363,265.81395 781.280361,264.877945 C780.872359,263.94194 780.296365,263.173948 779.552361,262.573945 C778.808358,261.973942 777.836367,261.673945 776.636361,261.673945 C775.436355,261.673945 774.368366,261.997942 773.432361,262.645945 C772.496357,263.293948 771.704364,264.181939 771.056361,265.309945 C770.408358,266.437951 769.904363,267.733938 769.544361,269.197945 C769.184359,270.661952 769.004361,272.185937 769.004361,273.769945 L769.004361,294.361945 L764.252361,294.361945 L764.252361,267.649945 C764.252361,266.881941 764.240361,266.053949 764.216361,265.165945 C764.192361,264.277941 764.168361,263.413949 764.144361,262.573945 C764.120361,261.733941 764.096361,260.965949 764.072361,260.269945 C764.048361,259.573942 764.012361,259.033947 763.964361,258.649945 L768.572361,258.649945 C768.668362,259.56195 768.740361,260.665939 768.788361,261.961945 C768.836361,263.257952 768.860361,264.481939 768.860361,265.633945 L769.004361,265.633945 C769.676365,263.233933 770.780354,261.277953 772.316361,259.765945 C773.852369,258.253937 775.77235,257.497945 778.076361,257.497945 C779.996371,257.497945 781.544355,257.905941 782.720361,258.721945 C783.896367,259.537949 784.796358,260.605938 785.420361,261.925945 C786.044364,263.245952 786.46436,264.733937 786.680361,266.389945 C786.896362,268.045953 787.004361,269.689937 787.004361,271.321945 L787.004361,294.361945 L782.252361,294.361945 Z M803.348361,247.705945 C803.348361,248.71395 803.036364,249.541942 802.412361,250.189945 C801.788358,250.837948 801.044366,251.161945 800.180361,251.161945 C799.268357,251.161945 798.512364,250.837948 797.912361,250.189945 C797.312358,249.541942 797.012361,248.71395 797.012361,247.705945 C797.012361,246.74594 797.312358,245.929948 797.912361,245.257945 C798.512364,244.585942 799.268357,244.249945 800.180361,244.249945 C801.092366,244.249945 801.848358,244.585942 802.448361,245.257945 C803.048364,245.929948 803.348361,246.74594 803.348361,247.705945 Z M797.804361,294.361945 L797.804361,258.649945 L802.556361,258.649945 L802.556361,294.361945 L797.804361,294.361945 Z M825.236361,294.361945 C824.708359,294.601946 824.060365,294.817944 823.292361,295.009945 C822.524357,295.201946 821.732365,295.297945 820.916361,295.297945 C818.420349,295.297945 816.656366,294.433954 815.624361,292.705945 C814.592356,290.977936 814.076361,288.673959 814.076361,285.793945 L814.076361,262.537945 L809.396361,262.537945 L809.396361,258.649945 L814.004361,258.649945 L814.004361,248.785945 L818.684361,248.785945 L818.684361,258.649945 L825.020361,258.649945 L825.020361,262.537945 L818.684361,262.537945 L818.684361,284.929945 C818.684361,287.089956 818.996358,288.66194 819.620361,289.645945 C820.244364,290.62995 821.180355,291.121945 822.428361,291.121945 C822.860363,291.121945 823.316359,291.061946 823.796361,290.941945 C824.276364,290.821944 824.68436,290.689946 825.020361,290.545945 L825.236361,294.361945 Z M840.644361,301.921945 C840.260359,303.457953 839.816364,304.825939 839.312361,306.025945 C838.808359,307.225951 838.196365,308.233941 837.476361,309.049945 C836.756358,309.865949 835.928366,310.501943 834.992361,310.957945 C834.056357,311.413947 832.940368,311.641945 831.644361,311.641945 C830.972358,311.641945 830.300365,311.581946 829.628361,311.461945 C828.956358,311.341944 828.404363,311.209946 827.972361,311.065945 L828.620361,306.817945 C828.956363,306.913946 829.364359,307.009945 829.844361,307.105945 C830.324364,307.201946 830.804359,307.249945 831.284361,307.249945 C832.676368,307.249945 833.720358,306.76995 834.416361,305.809945 C835.112365,304.84994 835.676359,303.529953 836.108361,301.849945 L837.692361,295.657945 L827.324361,258.649945 L832.364361,258.649945 L840.068361,288.817945 L840.212361,288.817945 L847.052361,258.649945 L851.876361,258.649945 L840.644361,301.921945 Z M894.068361,294.361945 L890.972361,281.617945 L875.276361,281.617945 L872.036361,294.361945 L866.924361,294.361945 L879.884361,243.385945 L886.724361,243.385945 L899.324361,294.361945 L894.068361,294.361945 Z M883.340361,247.921945 L883.052361,247.921945 L875.996361,277.585945 L890.252361,277.585945 L883.340361,247.921945 Z M910.412361,266.425945 C911.084365,263.305929 912.116354,261.049952 913.508361,259.657945 C914.900368,258.265938 916.484352,257.569945 918.260361,257.569945 C918.644363,257.569945 918.93236,257.593945 919.124361,257.641945 L918.980361,262.537945 C918.78836,262.489945 918.608362,262.453945 918.440361,262.429945 C918.27236,262.405945 918.068362,262.393945 917.828361,262.393945 C916.628355,262.393945 915.560366,262.801941 914.624361,263.617945 C913.688357,264.433949 912.908364,265.489939 912.284361,266.785945 C911.660358,268.081952 911.192363,269.557937 910.880361,271.213945 C910.56836,272.869953 910.412361,274.513937 910.412361,276.145945 L910.412361,294.361945 L905.660361,294.361945 L905.660361,267.649945 C905.660361,266.881941 905.648361,266.053949 905.624361,265.165945 C905.600361,264.277941 905.576361,263.413949 905.552361,262.573945 C905.528361,261.733941 905.504361,260.965949 905.480361,260.269945 C905.456361,259.573942 905.420361,259.033947 905.372361,258.649945 L909.980361,258.649945 C910.076362,259.56195 910.148361,260.701938 910.196361,262.069945 C910.244361,263.437952 910.268361,264.889937 910.268361,266.425945 L910.412361,266.425945 Z M936.692361,294.361945 C936.164359,294.601946 935.516365,294.817944 934.748361,295.009945 C933.980357,295.201946 933.188365,295.297945 932.372361,295.297945 C929.876349,295.297945 928.112366,294.433954 927.080361,292.705945 C926.048356,290.977936 925.532361,288.673959 925.532361,285.793945 L925.532361,262.537945 L920.852361,262.537945 L920.852361,258.649945 L925.460361,258.649945 L925.460361,248.785945 L930.140361,248.785945 L930.140361,258.649945 L936.476361,258.649945 L936.476361,262.537945 L930.140361,262.537945 L930.140361,284.929945 C930.140361,287.089956 930.452358,288.66194 931.076361,289.645945 C931.700364,290.62995 932.636355,291.121945 933.884361,291.121945 C934.316363,291.121945 934.772359,291.061946 935.252361,290.941945 C935.732364,290.821944 936.14036,290.689946 936.476361,290.545945 L936.692361,294.361945 Z M961.676361,247.921945 L961.676361,266.137945 L976.004361,266.137945 L976.004361,270.529945 L961.676361,270.529945 L961.676361,294.361945 L956.708361,294.361945 L956.708361,243.385945 L977.084361,243.385945 L977.084361,247.921945 L961.676361,247.921945 Z M1007.68436,276.577945 C1007.68436,279.409959 1007.39636,281.977934 1006.82036,284.281945 C1006.24436,286.585957 1005.42837,288.577937 1004.37236,290.257945 C1003.31636,291.937953 1002.00837,293.23394 1000.44836,294.145945 C998.888353,295.05795 997.148371,295.513945 995.228361,295.513945 C993.308352,295.513945 991.580369,295.05795 990.044361,294.145945 C988.508354,293.23394 987.200367,291.937953 986.120361,290.257945 C985.040356,288.577937 984.212364,286.585957 983.636361,284.281945 C983.060358,281.977934 982.772361,279.409959 982.772361,276.577945 C982.772361,273.745931 983.048358,271.153957 983.600361,268.801945 C984.152364,266.449933 984.956356,264.433953 986.012361,262.753945 C987.068367,261.073937 988.376353,259.77795 989.936361,258.865945 C991.496369,257.95394 993.260351,257.497945 995.228361,257.497945 C997.148371,257.497945 998.888353,257.95394 1000.44836,258.865945 C1002.00837,259.77795 1003.31636,261.073937 1004.37236,262.753945 C1005.42837,264.433953 1006.24436,266.449933 1006.82036,268.801945 C1007.39636,271.153957 1007.68436,273.745931 1007.68436,276.577945 Z M1002.78836,276.505945 C1002.78836,274.393934 1002.63236,272.425954 1002.32036,270.601945 C1002.00836,268.777936 1001.54036,267.205952 1000.91636,265.885945 C1000.29236,264.565938 999.512366,263.521949 998.576361,262.753945 C997.640357,261.985941 996.524368,261.601945 995.228361,261.601945 C993.932355,261.601945 992.804366,261.985941 991.844361,262.753945 C990.884356,263.521949 990.104364,264.565938 989.504361,265.885945 C988.904358,267.205952 988.448363,268.777936 988.136361,270.601945 C987.82436,272.425954 987.668361,274.393934 987.668361,276.505945 C987.668361,278.617956 987.82436,280.561936 988.136361,282.337945 C988.448363,284.113954 988.904358,285.673938 989.504361,287.017945 C990.104364,288.361952 990.884356,289.405941 991.844361,290.149945 C992.804366,290.893949 993.932355,291.265945 995.228361,291.265945 C996.524368,291.265945 997.652356,290.893949 998.612361,290.149945 C999.572366,289.405941 1000.35236,288.361952 1000.95236,287.017945 C1001.55236,285.673938 1002.00836,284.113954 1002.32036,282.337945 C1002.63236,280.561936 1002.78836,278.617956 1002.78836,276.505945 Z M1021.65236,266.425945 C1022.32436,263.305929 1023.35635,261.049952 1024.74836,259.657945 C1026.14037,258.265938 1027.72435,257.569945 1029.50036,257.569945 C1029.88436,257.569945 1030.17236,257.593945 1030.36436,257.641945 L1030.22036,262.537945 C1030.02836,262.489945 1029.84836,262.453945 1029.68036,262.429945 C1029.51236,262.405945 1029.30836,262.393945 1029.06836,262.393945 C1027.86836,262.393945 1026.80037,262.801941 1025.86436,263.617945 C1024.92836,264.433949 1024.14836,265.489939 1023.52436,266.785945 C1022.90036,268.081952 1022.43236,269.557937 1022.12036,271.213945 C1021.80836,272.869953 1021.65236,274.513937 1021.65236,276.145945 L1021.65236,294.361945 L1016.90036,294.361945 L1016.90036,267.649945 C1016.90036,266.881941 1016.88836,266.053949 1016.86436,265.165945 C1016.84036,264.277941 1016.81636,263.413949 1016.79236,262.573945 C1016.76836,261.733941 1016.74436,260.965949 1016.72036,260.269945 C1016.69636,259.573942 1016.66036,259.033947 1016.61236,258.649945 L1021.22036,258.649945 C1021.31636,259.56195 1021.38836,260.701938 1021.43636,262.069945 C1021.48436,263.437952 1021.50836,264.889937 1021.50836,266.425945 L1021.65236,266.425945 Z M1071.76436,294.361945 L1068.66836,281.617945 L1052.97236,281.617945 L1049.73236,294.361945 L1044.62036,294.361945 L1057.58036,243.385945 L1064.42036,243.385945 L1077.02036,294.361945 L1071.76436,294.361945 Z M1061.03636,247.921945 L1060.74836,247.921945 L1053.69236,277.585945 L1067.94836,277.585945 L1061.03636,247.921945 Z M1083.06836,294.361945 L1083.06836,239.929945 L1087.82036,239.929945 L1087.82036,294.361945 L1083.06836,294.361945 Z M1098.90836,294.361945 L1098.90836,239.929945 L1103.66036,239.929945 L1103.66036,294.361945 L1098.90836,294.361945 Z" id="CommunityArtForAll" fill="#000000" fill-rule="nonzero"></path>
                <path d="M514.862361,134.101945 C514.862361,123.335225 516.762342,113.581989 520.562361,104.841945 C524.36238,96.1019014 529.555662,88.6286428 536.142361,82.4219451 C542.729061,76.2152474 550.487317,71.4336285 559.417361,68.0769451 C568.347406,64.7202616 577.878977,63.0419451 588.012361,63.0419451 C598.39908,63.0419451 608.215648,64.7202616 617.462361,68.0769451 C626.709074,71.4336285 634.435664,75.9619166 640.642361,81.6619451 L612.902361,115.101945 C610.369015,111.808595 607.20238,109.306954 603.402361,107.596945 C599.602342,105.886937 595.359051,105.031945 590.672361,105.031945 C586.872342,105.031945 583.325711,105.696938 580.032361,107.026945 C576.739011,108.356952 573.857374,110.288599 571.387361,112.821945 C568.917349,115.355291 566.985702,118.426927 565.592361,122.036945 C564.199021,125.646963 563.502361,129.66859 563.502361,134.101945 C563.502361,138.535301 564.230687,142.493594 565.687361,145.976945 C567.144035,149.460296 569.107349,152.468599 571.577361,155.001945 C574.047374,157.535291 576.929011,159.466938 580.222361,160.796945 C583.515711,162.126952 586.99901,162.791945 590.672361,162.791945 C595.865721,162.791945 600.330676,161.715289 604.067361,159.561945 C607.804047,157.408601 610.749017,154.875293 612.902361,151.961945 L640.642361,185.211945 C634.562331,191.291975 627.089072,196.136927 618.222361,199.746945 C609.35565,203.356963 599.285751,205.161945 588.012361,205.161945 C577.878977,205.161945 568.347406,203.451962 559.417361,200.031945 C550.487317,196.611928 542.729061,191.766976 536.142361,185.496945 C529.555662,179.226914 524.36238,171.753655 520.562361,163.076945 C516.762342,154.400235 514.862361,144.741998 514.862361,134.101945 Z M738.112361,66.8419451 L786.182361,66.8419451 L838.622361,201.361945 L789.412361,201.361945 L782.382361,181.601945 L739.632361,181.601945 L732.982361,201.361945 L685.102361,201.361945 L738.112361,66.8419451 Z M761.482361,113.771945 L750.462361,147.021945 L772.312361,147.021945 L761.482361,113.771945 Z M939.892361,118.901945 L980.932361,118.901945 L980.932361,155.761945 L940.082361,155.761945 L940.082361,201.361945 L895.622361,201.361945 L895.622361,66.8419451 L986.442361,66.8419451 L986.442361,104.651945 L939.892361,104.651945 L939.892361,118.901945 Z M1053.51236,66.8419451 L1146.04236,66.8419451 L1146.04236,104.461945 L1096.07236,104.461945 L1096.07236,116.051945 L1143.00236,116.051945 L1143.00236,151.201945 L1096.07236,151.201945 L1096.07236,163.741945 L1149.27236,163.741945 L1149.27236,201.361945 L1053.51236,201.361945 L1053.51236,66.8419451 Z" id="CAFE" fill="#000000" fill-rule="nonzero"></path>
            </g>
        </g>
    </g>
</svg>