<?xml version="1.0" encoding="UTF-8"?>
<svg width="393px" height="356px" viewBox="0 0 393 356" version="1.1" xmlns="http://www.w3.org/2000/svg" xmlns:xlink="http://www.w3.org/1999/xlink">
    <!-- Generator: Sketch 55.2 (78181) - https://sketchapp.com -->
    <title>Group</title>
    <desc>Created with Sketch.</desc>
    <g id="CAFE" stroke="none" stroke-width="1" fill="none" fill-rule="evenodd">
        <g id="Final-Portfolio-Copy-5" transform="translate(-197.000000, -232.000000)">
            <g id="Group-3" transform="translate(195.027639, 228.958055)">
                <g id="Group-4" transform="translate(0.008726, 0.000076)">
                    <g id="Group" transform="translate(200.994745, 179.602108) rotate(1.000000) translate(-200.994745, -179.602108) translate(3.994745, 3.602108)">
                        <circle id="Oval" fill="#333333" cx="156.420608" cy="87.6396201" r="87"></circle>
                        <path d="M0.0771672183,291.696413 C36.9564191,214.451866 90.4973259,157.647809 158.475385,157.647809 C266.14319,157.647809 357.945892,238.183745 393.36702,351.217776 C355.587227,321.458706 310.975109,297.704787 261.072192,282.447934 C169.855793,254.560282 77.4191169,260.09388 0.0771672183,291.696413 Z" id="Combined-Shape" fill="#333333"></path>
                        <path d="M156.265307,264.60175 L156.265307,203.799679 L288.39258,37.2900292 L288.39258,291.641935 C244.733483,274.688259 199.952562,265.862536 156.265307,264.60175 Z" id="Combined-Shape" fill="#FF3D29"></path>
                        <path d="M193.891134,267.543531 L193.891134,219.673395 L326.018407,53.4175708 L326.018407,308.445647 C283.007218,286.637472 238.216501,273.193596 193.891134,267.543531 Z" id="Combined-Shape" fill="#FFF300"></path>
                        <path d="M222.467157,272.26291 L222.467157,244.50189 L355.376248,78.4821413 L355.376248,324.841556 C346.144948,319.185979 336.603871,313.838279 326.763304,308.82426 C292.749387,291.493303 257.613391,279.40037 222.467157,272.26291 Z" id="Combined-Shape" fill="#00A3FF"></path>
                    </g>
                </g>
            </g>
        </g>
    </g>
</svg>