<?xml version="1.0" encoding="UTF-8"?>
<svg width="1175px" height="356px" viewBox="0 0 1175 356" version="1.1" xmlns="http://www.w3.org/2000/svg" xmlns:xlink="http://www.w3.org/1999/xlink">
    <!-- Generator: Sketch 55.2 (78181) - https://sketchapp.com -->
    <title>Group 3</title>
    <desc>Created with Sketch.</desc>
    <g id="CAFE" stroke="none" stroke-width="1" fill="none" fill-rule="evenodd">
        <g id="Final-Portfolio-Copy-5" transform="translate(-197.000000, -232.000000)">
            <g id="Group-3" transform="translate(195.027639, 228.958055)">
                <g id="Group-4" transform="translate(0.008726, 0.000076)">
                    <g id="Group" transform="translate(200.994745, 179.602108) rotate(1.000000) translate(-200.994745, -179.602108) translate(3.994745, 3.602108)">
                        <circle id="Oval" fill="#333333" cx="156.420608" cy="87.6396201" r="87"></circle>
                        <path d="M0.0771672183,291.696413 C36.9564191,214.451866 90.4973259,157.647809 158.475385,157.647809 C266.14319,157.647809 357.945892,238.183745 393.36702,351.217776 C355.587227,321.458706 310.975109,297.704787 261.072192,282.447934 C169.855793,254.560282 77.4191169,260.09388 0.0771672183,291.696413 Z" id="Combined-Shape" fill="#333333"></path>
                        <path d="M156.265307,264.60175 L156.265307,203.799679 L288.39258,37.2900292 L288.39258,291.641935 C244.733483,274.688259 199.952562,265.862536 156.265307,264.60175 Z" id="Combined-Shape" fill="#FF3D29"></path>
                        <path d="M193.891134,267.543531 L193.891134,219.673395 L326.018407,53.4175708 L326.018407,308.445647 C283.007218,286.637472 238.216501,273.193596 193.891134,267.543531 Z" id="Combined-Shape" fill="#FFF300"></path>
                        <path d="M222.467157,272.26291 L222.467157,244.50189 L355.376248,78.4821413 L355.376248,324.841556 C346.144948,319.185979 336.603871,313.838279 326.763304,308.82426 C292.749387,291.493303 257.613391,279.40037 222.467157,272.26291 Z" id="Combined-Shape" fill="#00A3FF"></path>
                    </g>
                    <g id="Group-2" transform="translate(455.763635, 58.041869)" fill="#000000" fill-rule="nonzero">
                        <path d="M47.792,231.84 C46.4479933,234.096011 44.7440103,235.823994 42.68,237.024 C40.6159897,238.224006 38.288013,238.824 35.696,238.824 C32.9119861,238.824 30.4400108,238.140007 28.28,236.772 C26.1199892,235.403993 24.2960074,233.532012 22.808,231.156 C21.3199926,228.779988 20.180004,225.960016 19.388,222.696 C18.595996,219.431984 18.2,215.904019 18.2,212.112 C18.2,208.271981 18.595996,204.720016 19.388,201.456 C20.180004,198.191984 21.3319924,195.372012 22.844,192.996 C24.3560076,190.619988 26.1919892,188.760007 28.352,187.416 C30.5120108,186.071993 32.9599863,185.4 35.696,185.4 C38.096012,185.4 40.3399896,185.903995 42.428,186.912 C44.5160104,187.920005 46.255993,189.503989 47.648,191.664 L44.408,194.976 C43.3039945,193.295992 42.0200073,192.048004 40.556,191.232 C39.0919927,190.415996 37.5440082,190.008 35.912,190.008 C33.7999894,190.008 31.9640078,190.583994 30.404,191.736 C28.8439922,192.888006 27.5480052,194.47199 26.516,196.488 C25.4839948,198.50401 24.7160025,200.855987 24.212,203.544 C23.7079975,206.232013 23.456,209.087985 23.456,212.112 C23.456,215.136015 23.7199974,217.979987 24.248,220.644 C24.7760026,223.308013 25.5559948,225.64799 26.588,227.664 C27.6200052,229.68001 28.9159922,231.275994 30.476,232.452 C32.0360078,233.628006 33.8719894,234.216 35.984,234.216 C37.8080091,234.216 39.4639926,233.700005 40.952,232.668 C42.4400074,231.635995 43.6639952,230.280008 44.624,228.6 L47.792,231.84 Z M77.384,219.816 C77.384,222.648014 77.0960029,225.215988 76.52,227.52 C75.9439971,229.824012 75.1280053,231.815992 74.072,233.496 C73.0159947,235.176008 71.7080078,236.471995 70.148,237.384 C68.5879922,238.296005 66.8480096,238.752 64.928,238.752 C63.0079904,238.752 61.2800077,238.296005 59.744,237.384 C58.2079923,236.471995 56.9000054,235.176008 55.82,233.496 C54.7399946,231.815992 53.9120029,229.824012 53.336,227.52 C52.7599971,225.215988 52.472,222.648014 52.472,219.816 C52.472,216.983986 52.7479972,214.392012 53.3,212.04 C53.8520028,209.687988 54.6559947,207.672008 55.712,205.992 C56.7680053,204.311992 58.0759922,203.016005 59.636,202.104 C61.1960078,201.191995 62.9599902,200.736 64.928,200.736 C66.8480096,200.736 68.5879922,201.191995 70.148,202.104 C71.7080078,203.016005 73.0159947,204.311992 74.072,205.992 C75.1280053,207.672008 75.9439971,209.687988 76.52,212.04 C77.0960029,214.392012 77.384,216.983986 77.384,219.816 Z M72.488,219.744 C72.488,217.631989 72.3320016,215.664009 72.02,213.84 C71.7079984,212.015991 71.2400031,210.444007 70.616,209.124 C69.9919969,207.803993 69.2120047,206.760004 68.276,205.992 C67.3399953,205.223996 66.2240065,204.84 64.928,204.84 C63.6319935,204.84 62.5040048,205.223996 61.544,205.992 C60.5839952,206.760004 59.804003,207.803993 59.204,209.124 C58.603997,210.444007 58.1480016,212.015991 57.836,213.84 C57.5239984,215.664009 57.368,217.631989 57.368,219.744 C57.368,221.856011 57.5239984,223.799991 57.836,225.576 C58.1480016,227.352009 58.603997,228.911993 59.204,230.256 C59.804003,231.600007 60.5839952,232.643996 61.544,233.388 C62.5040048,234.132004 63.6319935,234.504 64.928,234.504 C66.2240065,234.504 67.3519952,234.132004 68.312,233.388 C69.2720048,232.643996 70.051997,231.600007 70.652,230.256 C71.252003,228.911993 71.7079984,227.352009 72.02,225.576 C72.3320016,223.799991 72.488,221.856011 72.488,219.744 Z M91.352,208.872 C91.8800026,206.471988 92.8999924,204.516008 94.412,203.004 C95.9240076,201.491992 97.879988,200.736 100.28,200.736 C101.576006,200.736 102.691995,200.963998 103.628,201.42 C104.564005,201.876002 105.355997,202.475996 106.004,203.22 C106.652003,203.964004 107.155998,204.839995 107.516,205.848 C107.876002,206.856005 108.151999,207.887995 108.344,208.944 L108.488,208.944 C108.776001,207.887995 109.183997,206.868005 109.712,205.884 C110.240003,204.899995 110.899996,204.024004 111.692,203.256 C112.484004,202.487996 113.395995,201.876002 114.428,201.42 C115.460005,200.963998 116.623994,200.736 117.92,200.736 C119.84001,200.736 121.375994,201.143996 122.528,201.96 C123.680006,202.776004 124.579997,203.843993 125.228,205.164 C125.876003,206.484007 126.307999,207.971992 126.524,209.628 C126.740001,211.284008 126.848,212.927992 126.848,214.56 L126.848,237.6 L122.024,237.6 L122.024,214.56 C122.024,213.455994 121.964001,212.340006 121.844,211.212 C121.723999,210.083994 121.472002,209.052005 121.088,208.116 C120.703998,207.179995 120.140004,206.412003 119.396,205.812 C118.651996,205.211997 117.656006,204.912 116.408,204.912 C115.255994,204.912 114.212005,205.236 113.276,205.884 C112.339995,206.532003 111.560003,207.419994 110.936,208.548 C110.312,209.676006 109.832002,210.971993 109.496,212.436 C109.159998,213.900007 108.992,215.423992 108.992,217.008 L108.992,237.6 L104.24,237.6 L104.24,214.56 C104.24,213.455994 104.180001,212.328006 104.06,211.176 C103.939999,210.023994 103.700002,208.980005 103.34,208.044 C102.979998,207.107995 102.428004,206.352003 101.684,205.776 C100.939996,205.199997 99.968006,204.912 98.768,204.912 C97.567994,204.912 96.5120046,205.236 95.6,205.884 C94.6879954,206.532003 93.9080032,207.419994 93.26,208.548 C92.6119968,209.676006 92.1200017,210.971993 91.784,212.436 C91.4479983,213.900007 91.28,215.423992 91.28,217.008 L91.28,237.6 L86.6,237.6 L86.6,210.888 C86.6,210.119996 86.5880001,209.292004 86.564,208.404 C86.5399999,207.515996 86.5160001,206.652004 86.492,205.812 C86.4679999,204.971996 86.4440001,204.204003 86.42,203.508 C86.3959999,202.811997 86.3600002,202.272002 86.312,201.888 L90.92,201.888 C91.0160005,202.800005 91.0879998,203.903994 91.136,205.2 C91.1840002,206.496006 91.208,207.719994 91.208,208.872 L91.352,208.872 Z M142.688,208.872 C143.216003,206.471988 144.235992,204.516008 145.748,203.004 C147.260008,201.491992 149.215988,200.736 151.616,200.736 C152.912006,200.736 154.027995,200.963998 154.964,201.42 C155.900005,201.876002 156.691997,202.475996 157.34,203.22 C157.988003,203.964004 158.491998,204.839995 158.852,205.848 C159.212002,206.856005 159.487999,207.887995 159.68,208.944 L159.824,208.944 C160.112001,207.887995 160.519997,206.868005 161.048,205.884 C161.576003,204.899995 162.235996,204.024004 163.028,203.256 C163.820004,202.487996 164.731995,201.876002 165.764,201.42 C166.796005,200.963998 167.959994,200.736 169.256,200.736 C171.17601,200.736 172.711994,201.143996 173.864,201.96 C175.016006,202.776004 175.915997,203.843993 176.564,205.164 C177.212003,206.484007 177.643999,207.971992 177.86,209.628 C178.076001,211.284008 178.184,212.927992 178.184,214.56 L178.184,237.6 L173.36,237.6 L173.36,214.56 C173.36,213.455994 173.300001,212.340006 173.18,211.212 C173.059999,210.083994 172.808002,209.052005 172.424,208.116 C172.039998,207.179995 171.476004,206.412003 170.732,205.812 C169.987996,205.211997 168.992006,204.912 167.744,204.912 C166.591994,204.912 165.548005,205.236 164.612,205.884 C163.675995,206.532003 162.896003,207.419994 162.272,208.548 C161.648,209.676006 161.168002,210.971993 160.832,212.436 C160.495998,213.900007 160.328,215.423992 160.328,217.008 L160.328,237.6 L155.576,237.6 L155.576,214.56 C155.576,213.455994 155.516001,212.328006 155.396,211.176 C155.275999,210.023994 155.036002,208.980005 154.676,208.044 C154.315998,207.107995 153.764004,206.352003 153.02,205.776 C152.275996,205.199997 151.304006,204.912 150.104,204.912 C148.903994,204.912 147.848005,205.236 146.936,205.884 C146.023995,206.532003 145.244003,207.419994 144.596,208.548 C143.947997,209.676006 143.456002,210.971993 143.12,212.436 C142.783998,213.900007 142.616,215.423992 142.616,217.008 L142.616,237.6 L137.936,237.6 L137.936,210.888 C137.936,210.119996 137.924,209.292004 137.9,208.404 C137.876,207.515996 137.852,206.652004 137.828,205.812 C137.804,204.971996 137.78,204.204003 137.756,203.508 C137.732,202.811997 137.696,202.272002 137.648,201.888 L142.256,201.888 C142.352,202.800005 142.424,203.903994 142.472,205.2 C142.52,206.496006 142.544,207.719994 142.544,208.872 L142.688,208.872 Z M193.448,201.888 L193.448,224.928 C193.448,226.032006 193.507999,227.147994 193.628,228.276 C193.748001,229.404006 194.011998,230.435995 194.42,231.372 C194.828002,232.308005 195.391996,233.075997 196.112,233.676 C196.832004,234.276003 197.815994,234.576 199.064,234.576 C200.264006,234.576 201.331995,234.252003 202.268,233.604 C203.204005,232.955997 203.995997,232.068006 204.644,230.94 C205.292003,229.811994 205.795998,228.516007 206.156,227.052 C206.516002,225.587993 206.696,224.064008 206.696,222.48 L206.696,201.888 L211.448,201.888 L211.448,228.6 C211.448,229.368004 211.46,230.195996 211.484,231.084 C211.508,231.972004 211.532,232.835996 211.556,233.676 C211.58,234.516004 211.604,235.295996 211.628,236.016 C211.652,236.736004 211.688,237.263998 211.736,237.6 L207.128,237.6 C207.032,236.687995 206.96,235.584006 206.912,234.288 C206.864,232.991994 206.84,231.768006 206.84,230.616 L206.696,230.616 C206.023997,233.016012 204.920008,234.971992 203.384,236.484 C201.847992,237.996008 199.928012,238.752 197.624,238.752 C195.70399,238.752 194.156006,238.344004 192.98,237.528 C191.803994,236.711996 190.904003,235.644007 190.28,234.324 C189.655997,233.003993 189.236001,231.528008 189.02,229.896 C188.803999,228.263992 188.696,226.608008 188.696,224.928 L188.696,201.888 L193.448,201.888 Z M241.112,237.6 L241.112,214.56 C241.112,213.455994 241.052001,212.340006 240.932,211.212 C240.811999,210.083994 240.548002,209.052005 240.14,208.116 C239.731998,207.179995 239.156004,206.412003 238.412,205.812 C237.667996,205.211997 236.696006,204.912 235.496,204.912 C234.295994,204.912 233.228005,205.236 232.292,205.884 C231.355995,206.532003 230.564003,207.419994 229.916,208.548 C229.267997,209.676006 228.764002,210.971993 228.404,212.436 C228.043998,213.900007 227.864,215.423992 227.864,217.008 L227.864,237.6 L223.112,237.6 L223.112,210.888 C223.112,210.119996 223.1,209.292004 223.076,208.404 C223.052,207.515996 223.028,206.652004 223.004,205.812 C222.98,204.971996 222.956,204.204003 222.932,203.508 C222.908,202.811997 222.872,202.272002 222.824,201.888 L227.432,201.888 C227.528,202.800005 227.6,203.903994 227.648,205.2 C227.696,206.496006 227.72,207.719994 227.72,208.872 L227.864,208.872 C228.536003,206.471988 229.639992,204.516008 231.176,203.004 C232.712008,201.491992 234.631988,200.736 236.936,200.736 C238.85601,200.736 240.403994,201.143996 241.58,201.96 C242.756006,202.776004 243.655997,203.843993 244.28,205.164 C244.904003,206.484007 245.324,207.971992 245.54,209.628 C245.756001,211.284008 245.864,212.927992 245.864,214.56 L245.864,237.6 L241.112,237.6 Z M262.208,190.944 C262.208,191.952005 261.896003,192.779997 261.272,193.428 C260.647997,194.076003 259.904004,194.4 259.04,194.4 C258.127995,194.4 257.372,194.076003 256.772,193.428 C256.171997,192.779997 255.872,191.952005 255.872,190.944 C255.872,189.983995 256.171997,189.168003 256.772,188.496 C257.372,187.823997 258.127995,187.488 259.04,187.488 C259.952005,187.488 260.707997,187.823997 261.308,188.496 C261.908003,189.168003 262.208,189.983995 262.208,190.944 Z M256.664,237.6 L256.664,201.888 L261.416,201.888 L261.416,237.6 L256.664,237.6 Z M284.096,237.6 C283.567997,237.840001 282.920004,238.055999 282.152,238.248 C281.383996,238.440001 280.592004,238.536 279.776,238.536 C277.279988,238.536 275.516005,237.672009 274.484,235.944 C273.451995,234.215991 272.936,231.912014 272.936,229.032 L272.936,205.776 L268.256,205.776 L268.256,201.888 L272.864,201.888 L272.864,192.024 L277.544,192.024 L277.544,201.888 L283.88,201.888 L283.88,205.776 L277.544,205.776 L277.544,228.168 C277.544,230.328011 277.855997,231.899995 278.48,232.884 C279.104003,233.868005 280.039994,234.36 281.288,234.36 C281.720002,234.36 282.175998,234.300001 282.656,234.18 C283.136002,234.059999 283.543998,233.928001 283.88,233.784 L284.096,237.6 Z M299.504,245.16 C299.119998,246.696008 298.676003,248.063994 298.172,249.264 C297.667997,250.464006 297.056004,251.471996 296.336,252.288 C295.615996,253.104004 294.788005,253.739998 293.852,254.196 C292.915995,254.652002 291.800006,254.88 290.504,254.88 C289.831997,254.88 289.160003,254.820001 288.488,254.7 C287.815997,254.579999 287.264002,254.448001 286.832,254.304 L287.48,250.056 C287.816002,250.152 288.223998,250.248 288.704,250.344 C289.184,250.44 289.663998,250.488 290.144,250.488 C291.536007,250.488 292.579997,250.008005 293.276,249.048 C293.972003,248.087995 294.535998,246.768008 294.968,245.088 L296.552,238.896 L286.184,201.888 L291.224,201.888 L298.928,232.056 L299.072,232.056 L305.912,201.888 L310.736,201.888 L299.504,245.16 Z M352.928,237.6 L349.832,224.856 L334.136,224.856 L330.896,237.6 L325.784,237.6 L338.744,186.624 L345.584,186.624 L358.184,237.6 L352.928,237.6 Z M342.2,191.16 L341.912,191.16 L334.856,220.824 L349.112,220.824 L342.2,191.16 Z M369.272,209.664 C369.944003,206.543984 370.975993,204.288007 372.368,202.896 C373.760007,201.503993 375.343991,200.808 377.12,200.808 C377.504002,200.808 377.791999,200.832 377.984,200.88 L377.84,205.776 C377.647999,205.728 377.468001,205.692 377.3,205.668 C377.131999,205.644 376.928001,205.632 376.688,205.632 C375.487994,205.632 374.420005,206.039996 373.484,206.856 C372.547995,207.672004 371.768003,208.727994 371.144,210.024 C370.519997,211.320006 370.052002,212.795992 369.74,214.452 C369.427998,216.108008 369.272,217.751992 369.272,219.384 L369.272,237.6 L364.52,237.6 L364.52,210.888 C364.52,210.119996 364.508,209.292004 364.484,208.404 C364.46,207.515996 364.436,206.652004 364.412,205.812 C364.388,204.971996 364.364,204.204003 364.34,203.508 C364.316,202.811997 364.28,202.272002 364.232,201.888 L368.84,201.888 C368.936,202.800005 369.008,203.939993 369.056,205.308 C369.104,206.676007 369.128,208.127992 369.128,209.664 L369.272,209.664 Z M395.552,237.6 C395.023997,237.840001 394.376004,238.055999 393.608,238.248 C392.839996,238.440001 392.048004,238.536 391.232,238.536 C388.735988,238.536 386.972005,237.672009 385.94,235.944 C384.907995,234.215991 384.392,231.912014 384.392,229.032 L384.392,205.776 L379.712,205.776 L379.712,201.888 L384.32,201.888 L384.32,192.024 L389,192.024 L389,201.888 L395.336,201.888 L395.336,205.776 L389,205.776 L389,228.168 C389,230.328011 389.311997,231.899995 389.936,232.884 C390.560003,233.868005 391.495994,234.36 392.744,234.36 C393.176002,234.36 393.631998,234.300001 394.112,234.18 C394.592002,234.059999 394.999998,233.928001 395.336,233.784 L395.552,237.6 Z M417.236,205.35 L417.236,218 L427.186,218 L427.186,221.05 L417.236,221.05 L417.236,237.6 L413.786,237.6 L413.786,202.2 L427.936,202.2 L427.936,205.35 L417.236,205.35 Z M449.186,225.25 C449.186,227.216676 448.986002,229 448.586,230.6 C448.185998,232.200008 447.619337,233.583327 446.886,234.75 C446.152663,235.916672 445.244339,236.816663 444.161,237.45 C443.077661,238.083337 441.86934,238.4 440.536,238.4 C439.20266,238.4 438.002672,238.083337 436.936,237.45 C435.869328,236.816663 434.961004,235.916672 434.211,234.75 C433.460996,233.583327 432.886,232.200008 432.486,230.6 C432.085998,229 431.886,227.216676 431.886,225.25 C431.886,223.283324 432.077665,221.483342 432.461,219.85 C432.844335,218.216658 433.402663,216.816673 434.136,215.65 C434.869337,214.483328 435.777661,213.583337 436.861,212.95 C437.944339,212.316663 439.169327,212 440.536,212 C441.86934,212 443.077661,212.316663 444.161,212.95 C445.244339,213.583337 446.152663,214.483328 446.886,215.65 C447.619337,216.816673 448.185998,218.216658 448.586,219.85 C448.986002,221.483342 449.186,223.283324 449.186,225.25 Z M445.786,225.2 C445.786,223.733326 445.677668,222.366673 445.461,221.1 C445.244332,219.833327 444.919336,218.741671 444.486,217.825 C444.052665,216.908329 443.511003,216.183336 442.861,215.65 C442.210997,215.116664 441.436005,214.85 440.536,214.85 C439.635996,214.85 438.85267,215.116664 438.186,215.65 C437.51933,216.183336 436.977669,216.908329 436.561,217.825 C436.144331,218.741671 435.827668,219.833327 435.611,221.1 C435.394332,222.366673 435.286,223.733326 435.286,225.2 C435.286,226.666674 435.394332,228.01666 435.611,229.25 C435.827668,230.483339 436.144331,231.566662 436.561,232.5 C436.977669,233.433338 437.51933,234.158331 438.186,234.675 C438.85267,235.191669 439.635996,235.45 440.536,235.45 C441.436005,235.45 442.21933,235.191669 442.886,234.675 C443.55267,234.158331 444.094331,233.433338 444.511,232.5 C444.927669,231.566662 445.244332,230.483339 445.461,229.25 C445.677668,228.01666 445.786,226.666674 445.786,225.2 Z M458.886,218.2 C459.352669,216.033322 460.069329,214.466671 461.036,213.5 C462.002672,212.533329 463.102661,212.05 464.336,212.05 C464.602668,212.05 464.802666,212.066666 464.936,212.1 L464.836,215.5 C464.702666,215.466667 464.577667,215.441667 464.461,215.425 C464.344333,215.408333 464.202668,215.4 464.036,215.4 C463.202663,215.4 462.461003,215.68333 461.811,216.25 C461.160997,216.816669 460.619336,217.55 460.186,218.45 C459.752665,219.350004 459.427668,220.374994 459.211,221.525 C458.994332,222.675006 458.886,223.816661 458.886,224.95 L458.886,237.6 L455.586,237.6 L455.586,219.05 C455.586,218.516664 455.577667,217.94167 455.561,217.325 C455.544333,216.70833 455.527667,216.108336 455.511,215.525 C455.494333,214.941664 455.477667,214.408336 455.461,213.925 C455.444333,213.441664 455.419334,213.066668 455.386,212.8 L458.586,212.8 C458.652667,213.433336 458.702667,214.224995 458.736,215.175 C458.769334,216.125005 458.786,217.133328 458.786,218.2 L458.886,218.2 Z M480.318,237.6 L480.318,186.624 L500.838,186.624 L500.838,191.088 L485.214,191.088 L485.214,209.016 L499.83,209.016 L499.83,213.264 L485.214,213.264 L485.214,233.064 L501.558,233.064 L501.558,237.6 L480.318,237.6 Z M520.998,237.6 L515.382,237.6 L505.806,201.888 L510.846,201.888 L518.262,232.56 L518.406,232.56 L525.462,201.888 L530.358,201.888 L520.998,237.6 Z M539.79,220.752 C539.79,222.72001 539.957998,224.531992 540.294,226.188 C540.630002,227.844008 541.121997,229.283994 541.77,230.508 C542.418003,231.732006 543.233995,232.691997 544.218,233.388 C545.202005,234.084003 546.365993,234.432 547.71,234.432 C549.438009,234.432 550.829995,233.904005 551.886,232.848 C552.942005,231.791995 553.757997,230.520007 554.334,229.032 L557.934,231.12 C557.069996,233.280011 555.786009,235.091993 554.082,236.556 C552.377991,238.020007 550.206013,238.752 547.566,238.752 C543.58198,238.752 540.486011,237.072017 538.278,233.712 C536.069989,230.351983 534.966,225.72003 534.966,219.816 C534.966,217.031986 535.253997,214.464012 535.83,212.112 C536.406003,209.759988 537.233995,207.744008 538.314,206.064 C539.394005,204.383992 540.713992,203.076005 542.274,202.14 C543.834008,201.203995 545.57399,200.736 547.494,200.736 C549.606011,200.736 551.393993,201.191995 552.858,202.104 C554.322007,203.016005 555.509995,204.263992 556.422,205.848 C557.334005,207.432008 557.993998,209.279989 558.402,211.392 C558.810002,213.504011 559.014,215.759988 559.014,218.16 L559.014,220.752 L539.79,220.752 Z M554.19,216.792 C554.19,213.191982 553.638006,210.300011 552.534,208.116 C551.429994,205.931989 549.702012,204.84 547.35,204.84 C545.957993,204.84 544.794005,205.259996 543.858,206.1 C542.921995,206.940004 542.154003,207.971994 541.554,209.196 C540.953997,210.420006 540.522001,211.727993 540.258,213.12 C539.993999,214.512007 539.862,215.735995 539.862,216.792 L554.19,216.792 Z M572.622,209.664 C573.294003,206.543984 574.325993,204.288007 575.718,202.896 C577.110007,201.503993 578.693991,200.808 580.47,200.808 C580.854002,200.808 581.141999,200.832 581.334,200.88 L581.19,205.776 C580.997999,205.728 580.818001,205.692 580.65,205.668 C580.481999,205.644 580.278001,205.632 580.038,205.632 C578.837994,205.632 577.770005,206.039996 576.834,206.856 C575.897995,207.672004 575.118003,208.727994 574.494,210.024 C573.869997,211.320006 573.402002,212.795992 573.09,214.452 C572.777998,216.108008 572.622,217.751992 572.622,219.384 L572.622,237.6 L567.87,237.6 L567.87,210.888 C567.87,210.119996 567.858,209.292004 567.834,208.404 C567.81,207.515996 567.786,206.652004 567.762,205.812 C567.738,204.971996 567.714,204.204003 567.69,203.508 C567.666,202.811997 567.63,202.272002 567.582,201.888 L572.19,201.888 C572.286,202.800005 572.358,203.939993 572.406,205.308 C572.454,206.676007 572.478,208.127992 572.478,209.664 L572.622,209.664 Z M596.31,245.16 C595.925998,246.696008 595.482003,248.063994 594.978,249.264 C594.473997,250.464006 593.862004,251.471996 593.142,252.288 C592.421996,253.104004 591.594005,253.739998 590.658,254.196 C589.721995,254.652002 588.606006,254.88 587.31,254.88 C586.637997,254.88 585.966003,254.820001 585.294,254.7 C584.621997,254.579999 584.070002,254.448001 583.638,254.304 L584.286,250.056 C584.622002,250.152 585.029998,250.248 585.51,250.344 C585.99,250.44 586.469998,250.488 586.95,250.488 C588.342007,250.488 589.385997,250.008005 590.082,249.048 C590.778003,248.087995 591.341998,246.768008 591.774,245.088 L593.358,238.896 L582.99,201.888 L588.03,201.888 L595.734,232.056 L595.878,232.056 L602.718,201.888 L607.542,201.888 L596.31,245.16 Z M637.062,219.816 C637.062,222.648014 636.774003,225.215988 636.198,227.52 C635.621997,229.824012 634.806005,231.815992 633.75,233.496 C632.693995,235.176008 631.386008,236.471995 629.826,237.384 C628.265992,238.296005 626.52601,238.752 624.606,238.752 C622.68599,238.752 620.958008,238.296005 619.422,237.384 C617.885992,236.471995 616.578005,235.176008 615.498,233.496 C614.417995,231.815992 613.590003,229.824012 613.014,227.52 C612.437997,225.215988 612.15,222.648014 612.15,219.816 C612.15,216.983986 612.425997,214.392012 612.978,212.04 C613.530003,209.687988 614.333995,207.672008 615.39,205.992 C616.446005,204.311992 617.753992,203.016005 619.314,202.104 C620.874008,201.191995 622.63799,200.736 624.606,200.736 C626.52601,200.736 628.265992,201.191995 629.826,202.104 C631.386008,203.016005 632.693995,204.311992 633.75,205.992 C634.806005,207.672008 635.621997,209.687988 636.198,212.04 C636.774003,214.392012 637.062,216.983986 637.062,219.816 Z M632.166,219.744 C632.166,217.631989 632.010002,215.664009 631.698,213.84 C631.385998,212.015991 630.918003,210.444007 630.294,209.124 C629.669997,207.803993 628.890005,206.760004 627.954,205.992 C627.017995,205.223996 625.902006,204.84 624.606,204.84 C623.309994,204.84 622.182005,205.223996 621.222,205.992 C620.261995,206.760004 619.482003,207.803993 618.882,209.124 C618.281997,210.444007 617.826002,212.015991 617.514,213.84 C617.201998,215.664009 617.046,217.631989 617.046,219.744 C617.046,221.856011 617.201998,223.799991 617.514,225.576 C617.826002,227.352009 618.281997,228.911993 618.882,230.256 C619.482003,231.600007 620.261995,232.643996 621.222,233.388 C622.182005,234.132004 623.309994,234.504 624.606,234.504 C625.902006,234.504 627.029995,234.132004 627.99,233.388 C628.950005,232.643996 629.729997,231.600007 630.33,230.256 C630.930003,228.911993 631.385998,227.352009 631.698,225.576 C632.010002,223.799991 632.166,221.856011 632.166,219.744 Z M664.278,237.6 L664.278,214.56 C664.278,213.455994 664.218001,212.340006 664.098,211.212 C663.977999,210.083994 663.714002,209.052005 663.306,208.116 C662.897998,207.179995 662.322004,206.412003 661.578,205.812 C660.833996,205.211997 659.862006,204.912 658.662,204.912 C657.461994,204.912 656.394005,205.236 655.458,205.884 C654.521995,206.532003 653.730003,207.419994 653.082,208.548 C652.433997,209.676006 651.930002,210.971993 651.57,212.436 C651.209998,213.900007 651.03,215.423992 651.03,217.008 L651.03,237.6 L646.278,237.6 L646.278,210.888 C646.278,210.119996 646.266,209.292004 646.242,208.404 C646.218,207.515996 646.194,206.652004 646.17,205.812 C646.146,204.971996 646.122,204.204003 646.098,203.508 C646.074,202.811997 646.038,202.272002 645.99,201.888 L650.598,201.888 C650.694,202.800005 650.766,203.903994 650.814,205.2 C650.862,206.496006 650.886,207.719994 650.886,208.872 L651.03,208.872 C651.702003,206.471988 652.805992,204.516008 654.342,203.004 C655.878008,201.491992 657.797988,200.736 660.102,200.736 C662.02201,200.736 663.569994,201.143996 664.746,201.96 C665.922006,202.776004 666.821997,203.843993 667.446,205.164 C668.070003,206.484007 668.49,207.971992 668.706,209.628 C668.922001,211.284008 669.03,212.927992 669.03,214.56 L669.03,237.6 L664.278,237.6 Z M682.494,220.752 C682.494,222.72001 682.661998,224.531992 682.998,226.188 C683.334002,227.844008 683.825997,229.283994 684.474,230.508 C685.122003,231.732006 685.937995,232.691997 686.922,233.388 C687.906005,234.084003 689.069993,234.432 690.414,234.432 C692.142009,234.432 693.533995,233.904005 694.59,232.848 C695.646005,231.791995 696.461997,230.520007 697.038,229.032 L700.638,231.12 C699.773996,233.280011 698.490009,235.091993 696.786,236.556 C695.081991,238.020007 692.910013,238.752 690.27,238.752 C686.28598,238.752 683.190011,237.072017 680.982,233.712 C678.773989,230.351983 677.67,225.72003 677.67,219.816 C677.67,217.031986 677.957997,214.464012 678.534,212.112 C679.110003,209.759988 679.937995,207.744008 681.018,206.064 C682.098005,204.383992 683.417992,203.076005 684.978,202.14 C686.538008,201.203995 688.27799,200.736 690.198,200.736 C692.310011,200.736 694.097993,201.191995 695.562,202.104 C697.026007,203.016005 698.213995,204.263992 699.126,205.848 C700.038005,207.432008 700.697998,209.279989 701.106,211.392 C701.514002,213.504011 701.718,215.759988 701.718,218.16 L701.718,220.752 L682.494,220.752 Z M696.894,216.792 C696.894,213.191982 696.342006,210.300011 695.238,208.116 C694.133994,205.931989 692.406012,204.84 690.054,204.84 C688.661993,204.84 687.498005,205.259996 686.562,206.1 C685.625995,206.940004 684.858003,207.971994 684.258,209.196 C683.657997,210.420006 683.226001,211.727993 682.962,213.12 C682.697999,214.512007 682.566,215.735995 682.566,216.792 L696.894,216.792 Z" id="CommunityArtForEveryone"></path>
                        <path d="M1.02318154e-12,74.8 C1.02318154e-12,63.46661 1.99998,53.200046 6,44 C10.00002,34.799954 15.466632,26.933366 22.4,20.4 C29.333368,13.866634 37.499953,8.833351 46.9,5.3 C56.300047,1.766649 66.33328,7.10542736e-14 77,7.10542736e-14 C87.933388,7.10542736e-14 98.266618,1.766649 108,5.3 C117.733382,8.833351 125.866634,13.59997 132.4,19.6 L103.2,54.8 C100.53332,51.333316 97.20002,48.700009 93.2,46.9 C89.19998,45.099991 84.733358,44.2 79.8,44.2 C75.79998,44.2 72.066684,44.899993 68.6,46.3 C65.133316,47.700007 62.100013,49.73332 59.5,52.4 C56.899987,55.06668 54.866674,58.299981 53.4,62.1 C51.933326,65.900019 51.2,70.13331 51.2,74.8 C51.2,79.46669 51.966659,83.633315 53.5,87.3 C55.033341,90.966685 57.099987,94.13332 59.7,96.8 C62.300013,99.46668 65.333316,101.5 68.8,102.9 C72.266684,104.300007 75.933314,105 79.8,105 C85.266694,105 89.966647,103.866678 93.9,101.6 C97.833353,99.333322 100.933322,96.666682 103.2,93.6 L132.4,128.6 C125.999968,135.000032 118.13338,140.099981 108.8,143.9 C99.46662,147.700019 88.866726,149.6 77,149.6 C66.33328,149.6 56.300047,147.800018 46.9,144.2 C37.499953,140.599982 29.333368,135.500033 22.4,128.9 C15.466632,122.299967 10.00002,114.433379 6,105.3 C1.99998,96.166621 1.02318154e-12,86.000056 1.02318154e-12,74.8 Z M251.4,4 L302,4 L357.2,145.6 L305.4,145.6 L298,124.8 L253,124.8 L246,145.6 L195.6,145.6 L251.4,4 Z M276,53.4 L264.4,88.4 L287.4,88.4 L276,53.4 Z M480.2,58.8 L523.4,58.8 L523.4,97.6 L480.4,97.6 L480.4,145.6 L433.6,145.6 L433.6,4 L529.2,4 L529.2,43.8 L480.2,43.8 L480.2,58.8 Z M619.8,4 L717.2,4 L717.2,43.6 L664.6,43.6 L664.6,55.8 L714,55.8 L714,92.8 L664.6,92.8 L664.6,106 L720.6,106 L720.6,145.6 L619.8,145.6 L619.8,4 Z" id="CAFE"></path>
                    </g>
                </g>
            </g>
        </g>
    </g>
</svg>