<?xml version="1.0" encoding="UTF-8"?>
<svg width="463px" height="356px" viewBox="0 0 463 356" version="1.1" xmlns="http://www.w3.org/2000/svg" xmlns:xlink="http://www.w3.org/1999/xlink">
    <!-- Generator: Sketch 53.2 (72643) - https://sketchapp.com -->
    <title>Group 2</title>
    <desc>Created with Sketch.</desc>
    <g id="CAFE" stroke="none" stroke-width="1" fill="none" fill-rule="evenodd">
        <g id="Final-Portfolio-Copy-5" transform="translate(-127.000000, -232.000000)">
            <g id="Group-2" transform="translate(126.027639, 227.958055)">
                <g id="Group" transform="translate(235.500000, 180.500000) rotate(1.000000) translate(-235.500000, -180.500000) translate(4.000000, 5.000000)">
                    <circle id="Oval" fill="#333333" cx="196.074146" cy="87.1518645" r="87"></circle>
                    <path d="M0.160787859,328.687031 C39.9574189,227.094136 126.777664,156.648182 227.475385,156.648182 C335.143171,156.648182 426.945858,237.183863 462.367001,350.217761 C424.587212,320.458697 379.9751,296.704784 330.072192,281.447934 C209.74031,244.658786 87.2848198,266.031493 0.160787859,328.687031 Z" id="Combined-Shape" fill="#333333"></path>
                    <path d="M216.847667,263.452196 L216.847667,178.942954 L348.97494,12.4333038 L348.97494,287.478604 C305.17364,271.563022 260.392347,263.741986 216.847667,263.452196 Z" id="Combined-Shape" fill="#FF3D29"></path>
                    <path d="M262.193038,266.455186 L262.193038,178.679487 L394.320311,12.423663 L394.320311,307.092498 C351.296775,285.378245 306.506414,272.022545 262.193038,266.455186 Z" id="Combined-Shape" fill="#FFF300"></path>
                    <path d="M298.348984,272.723971 L298.348984,179.372018 L431.258075,13.3522696 L431.258075,328.151184 C419.90831,320.887305 408.070011,314.09484 395.763304,307.82426 C363.969567,291.624542 331.195452,280.001363 298.348984,272.723971 Z" id="Combined-Shape" fill="#00A3FF"></path>
                </g>
            </g>
        </g>
    </g>
</svg>